# xmcd
# Track frame offsets:
# 150
# 15280
# 34466
# 47172
# 65829
# 81405
# 96988
# 110393
# 126812
# 138638
# 155636
# 173713
# 186476
# 200328
# 215607
# 235227
# 248805
# 261881
# 276473
# 293656
#
# Disc length: 4049 seconds
# Revision: 0
# Processed by: cddbd v1.5.2PL0 Copyright (c) Steve Scherf et al.
# Submitted via: VisiTrax 2.11.2.271 - For more info visit www.synapsa.com
#
DISCID=370fcf14
DTITLE=Various Artist - Country Radio Singles No. 158
DYEAR=2012
DGENRE=Country
TTITLE0=Thomas, Chris E - Stone Cold
TTITLE1=Brook Chivell Band, The - Thrills 'n' Spills
TTITLE2=Burgess, Adi - That's What Love Will Getcha
TTITLE3=Colston, Darren - Good Man
TTITLE4=Butler, Kalesti - She's a River
TTITLE5=Gunn, Ben - I Like Girls that Drink Beer
TTITLE6=Jansen, Stephanie - Shoes
TTITLE7=Fry Brothers, The - Built to Last
TTITLE8=Hockey, Margie-May - Roadtrain
TTITLE9=Lily, Susan - Miss You Much
TTITLE10=Walker, Michelle - Boots
TTITLE11=Haynes, Jim - Australia
TTITLE12=Andersen, Connie Kis - On the Other Side of Midnight
TTITLE13=Bostocks, The - Another Lifetime
TTITLE14=Adams, Clelia - River Valley Express
TTITLE15=Cox, Kristy - Miles and Timezones
TTITLE16=Reynolds, Dave - That's What Love Can Do for You
TTITLE17=Woodward, Craig - Bondi Smile
TTITLE18=McGee. Victoria - Don't Leave the Leavin'
TTITLE19=Dessent, Kyle - OK Alright
EXTD=
EXTT0=
EXTT1=
EXTT2=
EXTT3=
EXTT4=
EXTT5=
EXTT6=
EXTT7=
EXTT8=
EXTT9=
EXTT10=
EXTT11=
EXTT12=
EXTT13=
EXTT14=
EXTT15=
EXTT16=
EXTT17=
EXTT18=
EXTT19=
PLAYORDER=
